<svg id="Layer_2" data-name="Layer 2" xmlns="http://www.w3.org/2000/svg" viewBox="0 0 330.01 355"><defs><style>.cls-1{fill:#fff;}.cls-2,.cls-4{fill:none;stroke:#414042;stroke-miterlimit:10;}.cls-2{stroke-width:4px;}.cls-3{fill:#414042;}.cls-4{stroke-width:2px;}</style></defs><title>Kurc, primary logo</title><path class="cls-1" d="M167.37,0H330V136.24S328.38,295,167.85,354h-1C6.36,295,1,136.24,1,136.24V0Z"/><path class="cls-2" d="M169.8,16H315V138.78S316.46,285,170.24,338h-.89C23.14,285,17,138.78,17,138.78V16Z"/><path class="cls-3" d="M181.18,83.67,295.62,74.8v69.08s-3,121-125.38,165.86h-.74C47.08,264.89,44.11,143.88,44.11,143.88V74.8l114.44,8.87A146.44,146.44,0,0,0,181.18,83.67Z"/><path class="cls-3" d="M181.18,79l114.44-8.87H44.11L158.55,79A146.44,146.44,0,0,0,181.18,79Z"/><path class="cls-4" d="M166.87,1H330V137.74S327.88,296,167.35,355h-1C5.86,296,1,137.74,1,137.74V1Z"/><path class="cls-3" d="M46.7,28.32H69.45V41.73c3.89-4.49,7.36-8.92,10.84-13.41h26.81l-18,15.34,18.7,22.88H81.69L73.25,53.47l-3.8,3v10H46.7Z"/><path class="cls-3" d="M132,28.32V53.25c0,2.77,1.82,4.21,5.38,4.21,3.23,0,4.8-1.66,4.8-4.21V28.32h23V50.87c0,11.75-10.34,16.67-28.3,16.67-18.7,0-27.72-5.37-27.72-16.73V28.32Z"/><path class="cls-3" d="M195.69,53V66.55h-22V28.32h33c15,0,20.93,5.09,20.93,10.64s-5.46,8.14-9.68,9.08c5.79,1.16,8.77,4.93,8.77,10.64v.94a33.88,33.88,0,0,0,.58,6.93H205.37c-.91-1.61-1.16-4.27-1.16-7.76V56.91c0-2.22-.74-3.88-5.21-3.88Zm0-9.09h3.81c4.22,0,5.71-1.44,5.71-3.32s-1.65-3.21-5.79-3.21h-3.72Z"/><path class="cls-3" d="M290.83,52.92c-1.82,9.31-11.58,14.63-29.21,14.63-19.36,0-29.29-8.25-29.29-19.72s9-20.5,30.36-20.5c18.95,0,27.05,7.2,27.8,14.24H268.08c-.33-2.94-1.9-4.77-5.71-4.77-5.38,0-6.54,4-6.54,10.53,0,5.76.91,10.69,6.45,10.69,4.38,0,5.54-2.44,6-5.1Z"/><path class="cls-1" d="M206.91,199.9l-1-66.61C205.78,115.74,189.17,97,168.76,97s-37.13,17-37.13,37.46a37.47,37.47,0,0,0,37.31,37.3A38,38,0,0,0,189,166.12v33.56c-10,1.82-15.4,6.3-20.55,12.48a37.23,37.23,0,1,0-.16,47.49A37.06,37.06,0,0,0,196.82,273c20.47,0,37.64-16.66,37.64-37.13A37.31,37.31,0,0,0,206.91,199.9Zm-38-45.18a19.91,19.91,0,1,1,20.08-20v.1A20.07,20.07,0,0,1,168.93,154.72Zm-29.16,101.1a19.91,19.91,0,1,1,19.91-19.91A19.93,19.93,0,0,1,139.77,255.81Zm57,0a19.91,19.91,0,1,1,19.91-19.91A19.93,19.93,0,0,1,196.81,255.81Z"/></svg>