<svg id="Layer_2" data-name="Layer 2" xmlns="http://www.w3.org/2000/svg" viewBox="0 0 428.55 120.5"><defs><style>.cls-1{fill:#414042;}.cls-2{fill:#fff;}</style></defs><title>Kurc, secondary, logo</title><path class="cls-1" d="M70.3,4.55,129,0V35.43S127.48,97.5,64.69,120.5h-.38C1.52,97.5,0,35.43,0,35.43V0L58.7,4.55A75.11,75.11,0,0,0,70.3,4.55Z"/><path class="cls-1" d="M295.63,90.38,430.15,79.95H134.49L269,90.38A172.15,172.15,0,0,0,295.63,90.38Z"/><path class="cls-1" d="M141.55,30.78H168.3V46.54C172.87,41.27,177,36.06,181,30.78h31.51l-21.2,18,22,26.9H182.69l-9.92-15.37-4.47,3.58V75.72H141.55Z"/><path class="cls-1" d="M241.82,30.78V60.09c0,3.25,2.14,4.95,6.32,4.95,3.79,0,5.64-2,5.64-4.95V30.78h27V57.29c0,13.81-12.16,19.6-33.26,19.6-22,0-32.58-6.32-32.58-19.67V30.78Z"/><path class="cls-1" d="M316.7,59.83V75.72H290.83V30.78h38.81c17.6,0,24.61,6,24.61,12.5S347.83,52.86,342.87,54c6.81,1.37,10.31,5.8,10.31,12.5v1.11a39.83,39.83,0,0,0,.68,8.14H328.08c-1.07-1.89-1.36-5-1.36-9.12V64.39c0-2.61-.88-4.56-6.13-4.56Zm0-10.68h4.47c5,0,6.71-1.69,6.71-3.91s-1.95-3.78-6.81-3.78H316.7Z"/><path class="cls-1" d="M428.55,59.7c-2.14,10.94-13.62,17.19-34.33,17.19-22.76,0-34.43-9.7-34.43-23.18s10.6-24.1,35.69-24.1c22.27,0,31.8,8.47,32.68,16.74H401.8c-.39-3.45-2.24-5.6-6.71-5.6-6.32,0-7.68,4.76-7.68,12.38,0,6.77,1.07,12.57,7.59,12.57,5.15,0,6.52-2.87,7.1-6Z"/><path class="cls-2" d="M83.5,64.16,83,30c-.05-9-8.57-18.61-19-18.61a19.21,19.21,0,0,0-19,19.22c0,10.5,9,19.13,19.51,19.13a20.61,20.61,0,0,0,10.68-2.9V64.05a17.65,17.65,0,0,0-10.92,6.4A19.5,19.5,0,0,0,49.3,63.59a19,19,0,1,0-.18,38.09,19,19,0,0,0,14.6-6.87,19,19,0,0,0,14.61,6.87A19.08,19.08,0,0,0,83.5,64.16ZM64.4,41A10.43,10.43,0,0,1,54,30.78,10.53,10.53,0,0,1,64.51,20.57c5.62,0,10.56,4.57,10.56,10.19v0C75.08,36.42,70,41,64.4,41ZM49.06,92.84A10.21,10.21,0,1,1,59.28,82.63,10.22,10.22,0,0,1,49.06,92.84Zm29.26,0A10.21,10.21,0,1,1,88.53,82.63,10.22,10.22,0,0,1,78.32,92.84Z"/></svg>