<svg id="Layer_2" data-name="Layer 2" xmlns="http://www.w3.org/2000/svg" viewBox="0 0 330.07 355"><defs><style>.cls-1{fill:#414042;}.cls-2,.cls-4{fill:none;stroke:#fff;stroke-miterlimit:10;}.cls-2{stroke-width:4px;}.cls-3{fill:#fff;}.cls-4{stroke-width:2px;}</style></defs><title>Kurc, primary, neg logo</title><path class="cls-1" d="M167.09,0h163V136.35S328.1,295,167.58,354h-1C6.08,295,1.07,136.35,1.07,136.35V0Z"/><path class="cls-2" d="M169.52,16H315.07V138.9S316.18,285,170,338h-.89c-146.21-53-152-199.1-152-199.1V16Z"/><path class="cls-3" d="M180.91,83.78l114.44-8.87V144s-3,121-125.38,165.86h-.74C46.8,265,43.83,144,43.83,144V74.91l114.44,8.87A146.44,146.44,0,0,0,180.91,83.78Z"/><path class="cls-3" d="M180.91,79.13l114.44-8.87H43.83l114.44,8.87A146.44,146.44,0,0,0,180.91,79.13Z"/><path class="cls-4" d="M166.59,1H330.07V137.85S327.6,296,167.08,355h-1C5.58,296,1.07,137.85,1.07,137.85V1Z"/><path class="cls-3" d="M46.42,28.44H69.17V41.84c3.89-4.49,7.36-8.92,10.84-13.41h26.81l-18,15.34,18.7,22.88H81.42L73,53.59l-3.8,3v10H46.42Z"/><path class="cls-3" d="M131.71,28.44V53.36c0,2.77,1.82,4.21,5.38,4.21,3.23,0,4.8-1.66,4.8-4.21V28.44h23V51c0,11.75-10.34,16.67-28.3,16.67-18.7,0-27.72-5.37-27.72-16.73V28.44Z"/><path class="cls-3" d="M195.41,53.14V66.66h-22V28.44h33c15,0,20.93,5.09,20.93,10.64s-5.46,8.14-9.68,9.08c5.79,1.16,8.77,4.93,8.77,10.64v.94a33.88,33.88,0,0,0,.58,6.93H205.09c-.91-1.61-1.16-4.27-1.16-7.76V57c0-2.22-.74-3.88-5.21-3.88Zm0-9.09h3.81c4.22,0,5.71-1.44,5.71-3.32s-1.65-3.21-5.79-3.21h-3.72Z"/><path class="cls-3" d="M290.55,53c-1.82,9.31-11.58,14.63-29.21,14.63-19.36,0-29.29-8.25-29.29-19.72s9-20.5,30.36-20.5c18.95,0,27.05,7.2,27.8,14.24H267.8c-.33-2.94-1.9-4.77-5.71-4.77-5.38,0-6.54,4-6.54,10.53,0,5.76.91,10.69,6.45,10.69,4.38,0,5.54-2.44,6-5.1Z"/><path class="cls-1" d="M206.63,200l-1-66.61c-.1-17.55-16.71-36.28-37.13-36.28s-37.13,17-37.13,37.46a37.61,37.61,0,0,0,37.47,37.3,38.55,38.55,0,0,0,20.25-5.65v33.56c-10,1.82-15.56,6.3-20.71,12.48a37.21,37.21,0,1,0-28.82,60.88A37,37,0,0,0,168,259.76a37,37,0,0,0,28.51,13.39c20.47,0,37.64-16.66,37.64-37.13A37.32,37.32,0,0,0,206.63,200Zm-37.81-45.18a19.91,19.91,0,1,1,20.25-20v.1C189.07,145.92,179.78,154.83,168.82,154.83Zm-29.33,101.1A19.91,19.91,0,1,1,159.4,236,19.93,19.93,0,0,1,139.49,255.92Zm57,0A19.91,19.91,0,1,1,216.45,236,19.93,19.93,0,0,1,196.54,255.92Z"/></svg>